<?xml version="1.0" encoding="UTF-8" standalone="no"?>
<!-- Created with Inkscape (http://www.inkscape.org/) -->

<svg
   xmlns:dc="http://purl.org/dc/elements/1.1/"
   xmlns:cc="http://creativecommons.org/ns#"
   xmlns:rdf="http://www.w3.org/1999/02/22-rdf-syntax-ns#"
   xmlns:svg="http://www.w3.org/2000/svg"
   xmlns="http://www.w3.org/2000/svg"
   xmlns:sodipodi="http://sodipodi.sourceforge.net/DTD/sodipodi-0.dtd"
   xmlns:inkscape="http://www.inkscape.org/namespaces/inkscape"
   id="svg2985"
   version="1.1"
   inkscape:version="0.48.4 r9939"
   width="50"
   height="50"
   sodipodi:docname="haken.svg">
  <metadata
     id="metadata2991">
    <rdf:RDF>
      <cc:Work
         rdf:about="">
        <dc:format>image/svg+xml</dc:format>
        <dc:type
           rdf:resource="http://purl.org/dc/dcmitype/StillImage" />
        <dc:title />
      </cc:Work>
    </rdf:RDF>
  </metadata>
  <defs
     id="defs2989">
    <filter
       inkscape:collect="always"
       id="filter3785"
       color-interpolation-filters="sRGB">
      <feGaussianBlur
         inkscape:collect="always"
         stdDeviation="1.1305503"
         id="feGaussianBlur3787" />
    </filter>
  </defs>
  <sodipodi:namedview
     pagecolor="#ffffff"
     bordercolor="#666666"
     borderopacity="1"
     objecttolerance="10"
     gridtolerance="10"
     guidetolerance="10"
     inkscape:pageopacity="0"
     inkscape:pageshadow="2"
     inkscape:window-width="1366"
     inkscape:window-height="706"
     id="namedview2987"
     showgrid="false"
     inkscape:zoom="8"
     inkscape:cx="38.810739"
     inkscape:cy="23.935714"
     inkscape:window-x="-8"
     inkscape:window-y="-8"
     inkscape:window-maximized="1"
     inkscape:current-layer="svg2985"
     showguides="false" />
  <path
     style="fill:#26ff00;fill-opacity:1;stroke:#000000;stroke-opacity:1;filter:url(#filter3785)"
     d="M 54.162419,172.66421 C 12.084467,151.60854 4.8042817,151.65382 10.521187,135.98163 c 10.772835,-4.30341 27.95522,6.41477 45.632048,12.83962 25.185158,9.15385 29.40869,10.11893 49.675335,-0.24053 32.93695,-38.33362 33.52883,-41.4213 57.76755,-71.500993 18.55374,-21.716646 24.60547,-26.881758 40.42507,-41.822446 7.80547,-6.100706 16.13551,-12.648772 24.3893,-17.430425 4.68927,-2.514255 10.73694,-4.568335 14.49229,-0.889687 3.75536,3.678649 1.43906,7.449721 -1.95323,12.010138 -15.0386,16.123218 -28.63292,29.748099 -39.49006,44.281687 -13.64654,16.436146 -15.17922,17.108464 -34.49771,44.492376 -17.21121,26.21985 -22.21918,28.4224 -59.9193,113.42347 -32.465406,-44.4522 -27.000371,-37.06515 -52.880061,-58.48063 z"
     id="path2995"
     inkscape:connector-curvature="0"
     sodipodi:nodetypes="ccsccccsccccc"
     transform="matrix(0.2,0,0,0.2,-0.28967,0.55742)" />
</svg>
